<svg width="128" height="128" viewBox="0 0 128 128" fill="none" xmlns="http://www.w3.org/2000/svg">
  <style>
    .logo-dots {
      fill: #0f172a; /* Light mode: Premium Dark Slate */
    }
    @media (prefers-color-scheme: dark) {
      .logo-dots {
        fill: #9ac7ff; /* Dark mode: Nice Light Blue Brand Accent */
      }
    }
  </style>
  <g class="logo-dots">
    <rect x="63" y="23" width="2" height="2"/>
    <rect x="63" y="31" width="2" height="2"/>
    <rect x="62.2" y="38.2" width="3.6" height="3.6"/>
    <rect x="61.2" y="45.2" width="5.6" height="5.6"/>
    <rect x="61.2" y="53.2" width="5.6" height="5.6"/>
    <rect x="61.2" y="61.2" width="5.6" height="5.6"/>
    <rect x="62.2" y="70.2" width="3.6" height="3.6"/>
    <rect x="63" y="79" width="2" height="2"/>
    <rect x="63" y="87" width="2" height="2"/>
    <rect x="63" y="95" width="2" height="2"/>
    <rect x="63" y="103" width="2" height="2"/>

    <rect x="56" y="27" width="2" height="2"/><rect x="70" y="27" width="2" height="2"/>
    <rect x="56" y="35" width="2" height="2"/><rect x="70" y="35" width="2" height="2"/>
    <rect x="55.2" y="42.2" width="3.6" height="3.6"/><rect x="69.2" y="42.2" width="3.6" height="3.6"/>
    <rect x="54.2" y="49.2" width="5.6" height="5.6"/><rect x="68.2" y="49.2" width="5.6" height="5.6"/>
    <rect x="54.2" y="57.2" width="5.6" height="5.6"/><rect x="68.2" y="57.2" width="5.6" height="5.6"/>
    <rect x="54.2" y="65.2" width="5.6" height="5.6"/><rect x="68.2" y="65.2" width="5.6" height="5.6"/>
    <rect x="55.2" y="74.2" width="3.6" height="3.6"/><rect x="69.2" y="74.2" width="3.6" height="3.6"/>
    <rect x="56" y="83" width="2" height="2"/><rect x="70" y="83" width="2" height="2"/>
    <rect x="56" y="91" width="2" height="2"/><rect x="70" y="91" width="2" height="2"/>
    <rect x="56" y="99" width="2" height="2"/><rect x="70" y="99" width="2" height="2"/>

    <rect x="49" y="31" width="2" height="2"/><rect x="77" y="31" width="2" height="2"/>
    <rect x="49" y="39" width="2" height="2"/><rect x="77" y="39" width="2" height="2"/>
    <rect x="48.2" y="46.2" width="3.6" height="3.6"/><rect x="76.2" y="46.2" width="3.6" height="3.6"/>
    <rect x="47.2" y="53.2" width="5.6" height="5.6"/><rect x="75.2" y="53.2" width="5.6" height="5.6"/>
    <rect x="47.2" y="61.2" width="5.6" height="5.6"/><rect x="75.2" y="61.2" width="5.6" height="5.6"/>
    <rect x="47.2" y="69.2" width="5.6" height="5.6"/><rect x="75.2" y="69.2" width="5.6" height="5.6"/>
    <rect x="48.2" y="78.2" width="3.6" height="3.6"/><rect x="76.2" y="78.2" width="3.6" height="3.6"/>
    <rect x="49" y="87" width="2" height="2"/><rect x="77" y="87" width="2" height="2"/>
    <rect x="49" y="95" width="2" height="2"/><rect x="77" y="95" width="2" height="2"/>

    <rect x="42" y="35" width="2" height="2"/><rect x="84" y="35" width="2" height="2"/>
    <rect x="42" y="43" width="2" height="2"/><rect x="84" y="43" width="2" height="2"/>
    <rect x="41.2" y="50.2" width="3.6" height="3.6"/><rect x="83.2" y="50.2" width="3.6" height="3.6"/>
    <rect x="40.2" y="57.2" width="5.6" height="5.6"/><rect x="82.2" y="57.2" width="5.6" height="5.6"/>
    <rect x="40.2" y="65.2" width="5.6" height="5.6"/><rect x="82.2" y="65.2" width="5.6" height="5.6"/>
    <rect x="41.2" y="74.2" width="3.6" height="3.6"/><rect x="83.2" y="74.2" width="3.6" height="3.6"/>
    <rect x="42" y="83" width="2" height="2"/><rect x="84" y="83" width="2" height="2"/>
    <rect x="42" y="91" width="2" height="2"/><rect x="84" y="91" width="2" height="2"/>

    <rect x="35" y="39" width="2" height="2"/><rect x="91" y="39" width="2" height="2"/>
    <rect x="35" y="47" width="2" height="2"/><rect x="91" y="47" width="2" height="2"/>
    <rect x="34.2" y="54.2" width="3.6" height="3.6"/><rect x="90.2" y="54.2" width="3.6" height="3.6"/>
    <rect x="33.2" y="61.2" width="5.6" height="5.6"/><rect x="89.2" y="61.2" width="5.6" height="5.6"/>
    <rect x="34.2" y="70.2" width="3.6" height="3.6"/><rect x="90.2" y="70.2" width="3.6" height="3.6"/>
    <rect x="35" y="79" width="2" height="2"/><rect x="91" y="79" width="2" height="2"/>
    <rect x="35" y="87" width="2" height="2"/><rect x="91" y="87" width="2" height="2"/>

    <rect x="28" y="43" width="2" height="2"/><rect x="98" y="43" width="2" height="2"/>
    <rect x="28" y="51" width="2" height="2"/><rect x="98" y="51" width="2" height="2"/>
    <rect x="27.2" y="58.2" width="3.6" height="3.6"/><rect x="97.2" y="58.2" width="3.6" height="3.6"/>
    <rect x="27.2" y="66.2" width="3.6" height="3.6"/><rect x="97.2" y="66.2" width="3.6" height="3.6"/>
    <rect x="28" y="75" width="2" height="2"/><rect x="98" y="75" width="2" height="2"/>
    <rect x="28" y="83" width="2" height="2"/><rect x="98" y="83" width="2" height="2"/>

    <rect x="21" y="47" width="2" height="2"/><rect x="105" y="47" width="2" height="2"/>
    <rect x="21" y="55" width="2" height="2"/><rect x="105" y="55" width="2" height="2"/>
    <rect x="21" y="63" width="2" height="2"/><rect x="105" y="63" width="2" height="2"/>
    <rect x="21" y="71" width="2" height="2"/><rect x="105" y="71" width="2" height="2"/>
    <rect x="21" y="79" width="2" height="2"/><rect x="105" y="79" width="2" height="2"/>
  </g>
</svg>
