<svg width="24" height="24" viewBox="0 0 24 24" fill="none" xmlns="http://www.w3.org/2000/svg">
<g clip-path="url(#clip0_112_1301)">
<path fill-rule="evenodd" clip-rule="evenodd" d="M23.9467 13.1178C23.3731 19.2015 18.2434 23.9619 12 23.9619C5.37258 23.9619 0 18.5978 0 11.9809C0 5.36405 5.37258 0 12 0C18.3031 0 23.4711 4.85188 23.9619 11.019H17.9149C17.454 8.17231 14.9813 5.9985 12 5.9985C8.69073 5.9985 6.00804 8.67693 6.00804 11.9809C6.00804 15.285 8.69073 17.9634 12 17.9634C14.9199 17.9634 17.352 15.8781 17.8839 13.1178H23.9467ZM24 11.9593C24 11.9665 24 11.9737 24 11.9809C24 11.9881 24 11.9953 24 12.0025V11.9593Z" fill="white"/>
</g>
<defs>
<clipPath id="clip0_112_1301">
<rect width="24" height="24" fill="white"/>
</clipPath>
</defs>
</svg>
