<svg width="24" height="24" viewBox="0 0 24 24" fill="none" xmlns="http://www.w3.org/2000/svg">
<g clip-path="url(#clip0_112_1242)">
<rect width="24" height="24" fill="url(#paint0_linear_112_1242)"/>
<path d="M9.24205 5.8052C9.04271 5.77442 9.03432 5.77023 9.12804 5.75624C9.3078 5.72826 9.73305 5.76673 10.0261 5.83597C10.7094 5.99894 11.3312 6.4151 11.9957 7.15439L12.1719 7.35023L12.4237 7.31036C13.4869 7.139 14.5689 7.27539 15.4732 7.69295C15.7222 7.80765 16.1146 8.03636 16.1636 8.09581C16.1796 8.114 16.2083 8.235 16.2272 8.36369C16.2943 8.80923 16.2608 9.15055 16.1251 9.40584C16.0509 9.54432 16.0468 9.58769 16.0964 9.70659C16.12 9.7557 16.1569 9.79721 16.2029 9.82639C16.2489 9.85557 16.3021 9.87125 16.3566 9.87165C16.5818 9.87165 16.8238 9.50795 16.9357 9.00227L16.9805 8.80153L17.0686 8.90155C17.5526 9.4499 17.9324 10.1976 17.9974 10.7291L18.0149 10.8683L17.9331 10.7424C17.7932 10.5256 17.6533 10.3773 17.4729 10.2577C17.1483 10.043 16.8049 9.97027 15.8957 9.92201C15.0746 9.87865 14.6094 9.80871 14.1492 9.65833C13.3652 9.40304 12.97 9.06242 12.0384 7.84052C11.625 7.29777 11.369 6.99772 11.1151 6.75642C10.5367 6.20667 9.96875 5.91851 9.24205 5.8052Z" fill="white"/>
<path d="M16.349 7.01731C16.37 6.65361 16.4189 6.4137 16.5183 6.19478C16.5574 6.10805 16.5945 6.03671 16.6001 6.03671C16.5939 6.08581 16.5809 6.13382 16.5616 6.1794C16.4896 6.39202 16.4777 6.68298 16.5274 7.0208C16.5903 7.45025 16.6267 7.5118 17.0799 7.97552C17.2932 8.19304 17.5408 8.46721 17.6304 8.58542L17.7933 8.79944L17.6304 8.64627C17.431 8.45952 16.9722 8.09372 16.8708 8.04196C16.8029 8.00699 16.7924 8.00769 16.7505 8.04896C16.712 8.08813 16.7036 8.14548 16.6987 8.41895C16.6903 8.8442 16.6323 9.11838 16.4917 9.39115C16.4162 9.53803 16.4043 9.50726 16.4728 9.3401C16.5239 9.2156 16.5288 9.16104 16.5288 8.74908C16.5288 7.92096 16.4301 7.72233 15.8531 7.38101C15.6795 7.28026 15.5012 7.18783 15.3188 7.10403C15.2286 7.06788 15.1412 7.02534 15.0572 6.97674C15.0733 6.96065 15.6356 7.12432 15.8615 7.21175C16.1986 7.34114 16.2539 7.35793 16.2952 7.34184C16.3224 7.33135 16.3357 7.25161 16.349 7.01731ZM9.62964 8.43364C9.22467 7.8762 8.97428 7.0208 9.02813 6.38153L9.04492 6.18359L9.13724 6.20038C9.3107 6.23185 9.60935 6.34306 9.74924 6.42839C10.1325 6.6613 10.299 6.96835 10.4675 7.7559C10.5172 7.98671 10.5823 8.24759 10.6123 8.33642C10.6599 8.4784 10.8417 8.81063 10.99 9.02675C11.0963 9.18203 11.025 9.25546 10.79 9.23448C10.4305 9.20161 9.94368 8.86589 9.62964 8.43364ZM15.858 12.5847C13.9647 11.8224 13.2981 11.1607 13.2981 10.0444C13.2981 9.88005 13.3037 9.74576 13.31 9.74576C13.317 9.74576 13.3904 9.79962 13.473 9.86606C13.857 10.1738 14.2871 10.3053 15.4768 10.4788C16.1769 10.5816 16.5714 10.6641 16.9351 10.7844C18.0906 11.1677 18.8054 11.9455 18.976 13.0044C19.025 13.3121 18.9963 13.8892 18.9159 14.1934C18.8529 14.434 18.6592 14.8669 18.6081 14.8837C18.5942 14.8879 18.5802 14.8341 18.576 14.7592C18.5564 14.362 18.3557 13.9745 18.0178 13.6842C17.6339 13.3548 17.1191 13.0918 15.858 12.5847ZM14.5291 12.9009C14.5067 12.7658 14.4761 12.6322 14.4375 12.5008L14.3885 12.3567L14.4787 12.4574C14.6025 12.5973 14.7012 12.775 14.7837 13.0128C14.8473 13.1939 14.8543 13.2478 14.8536 13.5422C14.8536 13.8318 14.8459 13.892 14.7872 14.0556C14.7055 14.2956 14.5687 14.5131 14.3878 14.6907C14.0416 15.0432 13.5975 15.2376 12.9554 15.3188C12.8435 15.3328 12.519 15.3565 12.2329 15.3712C11.5125 15.409 11.039 15.4859 10.613 15.6356C10.5746 15.6528 10.5334 15.6628 10.4913 15.665C10.4745 15.6475 10.7641 15.4747 11.004 15.3593C11.3418 15.1964 11.6776 15.1076 12.4308 14.9824C12.8029 14.9201 13.1876 14.8453 13.2848 14.8152C14.2067 14.5326 14.6809 13.8038 14.5291 12.9009Z" fill="white"/>
<path d="M15.3963 14.4424C15.1445 13.9018 15.0871 13.3793 15.2249 12.8925C15.2396 12.8407 15.2634 12.7981 15.2774 12.7981C15.3247 12.8152 15.3693 12.8392 15.4096 12.8694C15.5257 12.9477 15.7579 13.0792 16.3769 13.4164C17.1497 13.8381 17.5904 14.1647 17.8904 14.5368C18.1527 14.8635 18.315 15.2356 18.3933 15.6888C18.4374 15.9455 18.4115 16.5631 18.3458 16.8219C18.138 17.6374 17.6547 18.2781 16.9665 18.6515C16.9015 18.6891 16.8343 18.7225 16.7651 18.7516C16.7553 18.7516 16.7916 18.6585 16.8469 18.5438C17.0777 18.0598 17.105 17.5884 16.9294 17.0639C16.8224 16.7428 16.6035 16.3504 16.1622 15.6888C15.6488 14.9194 15.5229 14.7138 15.3963 14.4424ZM8.28524 17.3597C8.98816 16.7666 9.86174 16.3455 10.6584 16.2162C11.0011 16.1602 11.5732 16.1826 11.8908 16.2637C12.4 16.3938 12.856 16.6862 13.0931 17.0338C13.3239 17.3737 13.4239 17.6703 13.5267 18.3291C13.5687 18.5893 13.6128 18.8502 13.626 18.9096C13.703 19.251 13.8548 19.5244 14.0422 19.6615C14.3395 19.879 14.8521 19.8923 15.3557 19.6965C15.4083 19.6723 15.4638 19.655 15.5208 19.6447C15.539 19.6629 15.2858 19.8329 15.1067 19.9224C14.8954 20.0355 14.6588 20.0928 14.4192 20.0889C13.9576 20.0889 13.5743 19.8546 13.2546 19.3755C13.1917 19.281 13.0504 18.9992 12.9399 18.7481C12.6028 17.9787 12.4363 17.7437 12.0446 17.487C11.7026 17.2632 11.2627 17.2233 10.9319 17.3856C10.4968 17.5989 10.3758 18.155 10.6871 18.5068C10.8109 18.6467 11.0417 18.7677 11.2305 18.7907C11.3129 18.8017 11.3967 18.7948 11.4761 18.7705C11.5556 18.7463 11.629 18.7052 11.6912 18.6502C11.7535 18.5952 11.8032 18.5274 11.837 18.4515C11.8709 18.3756 11.888 18.2933 11.8873 18.2102C11.8873 17.978 11.7977 17.8465 11.5739 17.7451C11.2683 17.6073 10.9396 17.7682 10.941 18.0556C10.9417 18.178 10.9948 18.255 11.1179 18.3109C11.1969 18.3459 11.1983 18.3494 11.134 18.3361C10.8535 18.2774 10.7878 17.9395 11.0137 17.715C11.2844 17.445 11.8446 17.5639 12.037 17.9318C12.1181 18.0864 12.1272 18.3949 12.0565 18.5809C11.8992 18.9971 11.4389 19.2153 10.9724 19.0964C10.6549 19.0153 10.5255 18.9278 10.1429 18.5333C9.47776 17.8479 9.21967 17.715 8.26006 17.5653L8.07611 17.5367L8.28594 17.3597H8.28524Z" fill="white"/>
<path fill-rule="evenodd" clip-rule="evenodd" d="M5 4.11471L5.06714 4.19654C7.66061 7.37193 9.00071 9.01977 9.08604 9.13727C9.22592 9.33171 9.17347 9.50587 8.93286 9.64296C8.79927 9.71919 8.5237 9.79613 8.38661 9.79613C8.23064 9.79613 8.05509 9.72129 7.92709 9.60029C7.83687 9.51426 7.47247 8.97011 6.63106 7.66429C6.23704 7.04711 5.83789 6.43323 5.43364 5.8227C5.39937 5.79053 5.40007 5.79123 6.56531 7.87621C7.29691 9.18553 7.54451 9.64785 7.54451 9.7101C7.54451 9.836 7.50954 9.90174 7.35426 10.0752C7.09548 10.3641 6.98007 10.6886 6.89614 11.36C6.80242 12.1133 6.53943 12.6449 5.80923 13.5548C5.38259 14.0878 5.31264 14.1857 5.20423 14.4004C5.06854 14.6704 5.03147 14.8222 5.01609 15.1635C5 15.5244 5.03147 15.758 5.14198 16.1028C5.2385 16.405 5.33922 16.605 5.59661 17.0037C5.81903 17.3485 5.94702 17.6045 5.94702 17.7045C5.94702 17.7843 5.96241 17.7843 6.30722 17.7066C7.13185 17.5206 7.8012 17.1925 8.17818 16.7911C8.41109 16.5428 8.46565 16.4057 8.46775 16.0651C8.46845 15.8427 8.46075 15.7958 8.4006 15.6678C8.30268 15.4594 8.12433 15.2859 7.73125 15.0173C7.21578 14.6648 6.99616 14.3809 6.93531 13.9913C6.88495 13.6716 6.943 13.4457 7.22837 12.8484C7.52282 12.2301 7.59626 11.9671 7.64592 11.344C7.6774 10.9411 7.72146 10.7823 7.83757 10.655C7.95787 10.5221 8.06698 10.4767 8.36563 10.4361C8.85243 10.3697 9.16228 10.2438 9.41687 10.0095C9.63788 9.80522 9.73021 9.60869 9.7442 9.31353L9.75539 9.08971L9.63159 8.94563C9.45394 8.7386 7.98444 7.11734 5.22242 4.08043L5.14828 4L5 4.11541V4.11471ZM6.19881 15.5727C6.24761 15.4863 6.26218 15.3847 6.23964 15.2881C6.2171 15.1914 6.1591 15.1068 6.07711 15.0509C5.91764 14.9446 5.66935 14.995 5.66935 15.1334C5.66935 15.1754 5.69243 15.2062 5.74489 15.2335C5.83371 15.2789 5.84001 15.3307 5.77077 15.4349C5.70012 15.5412 5.70572 15.6349 5.78685 15.6986C5.91695 15.8007 6.10089 15.744 6.19881 15.5727ZM10.0624 10.5536C9.83372 10.6235 9.61201 10.8663 9.54276 11.1201C9.5008 11.2747 9.52458 11.5468 9.58753 11.6307C9.68894 11.7664 9.78756 11.8021 10.0533 11.8C10.5737 11.7965 11.0255 11.5734 11.0787 11.2943C11.1221 11.0656 10.9227 10.7487 10.6493 10.6089C10.508 10.5375 10.2079 10.5088 10.0624 10.5536ZM10.6709 11.0292C10.7514 10.9152 10.7157 10.7914 10.58 10.7089C10.3198 10.5501 9.92675 10.6809 9.92675 10.9271C9.92675 11.0488 10.1317 11.1824 10.3191 11.1824C10.445 11.1824 10.6157 11.1076 10.6709 11.0292Z" fill="white"/>
</g>
<defs>
<linearGradient id="paint0_linear_112_1242" x1="12" y1="0" x2="12" y2="24" gradientUnits="userSpaceOnUse">
<stop stop-color="#EF1EC2"/>
<stop offset="1" stop-color="#F985E3"/>
</linearGradient>
<clipPath id="clip0_112_1242">
<rect width="24" height="24" rx="6" fill="white"/>
</clipPath>
</defs>
</svg>
