<svg width="24" height="24" viewBox="0 0 24 24" fill="none" xmlns="http://www.w3.org/2000/svg">
<g clip-path="url(#clip0_110_1386)">
<path d="M12 24C18.6274 24 24 18.6274 24 12C24 5.37258 18.6274 0 12 0C5.37258 0 0 5.37258 0 12C0 18.6274 5.37258 24 12 24Z" fill="#3A63A1"/>
<path d="M14.9253 13.1817C14.9253 11.6369 13.9943 11.1074 12.1324 10.8863C10.8028 10.7095 10.5373 10.3568 10.5373 9.73855C10.5373 9.12033 10.981 8.72321 11.8669 8.72321C12.6648 8.72321 13.1084 8.98796 13.3295 9.65055C13.3526 9.71461 13.3947 9.77009 13.4502 9.80949C13.5057 9.84889 13.572 9.87033 13.6401 9.87092H14.3492C14.3902 9.87202 14.4309 9.86478 14.469 9.84965C14.5071 9.83452 14.5417 9.81182 14.5707 9.78291C14.5998 9.75401 14.6226 9.71951 14.638 9.6815C14.6533 9.64349 14.6607 9.60278 14.6598 9.56181V9.51817C14.5731 9.0388 14.3306 8.60146 13.9698 8.27411C13.609 7.94675 13.1503 7.7477 12.6647 7.70788V6.6489C12.6647 6.47216 12.5317 6.33979 12.3105 6.29543H11.645C11.4683 6.29543 11.3352 6.4278 11.2908 6.6489V7.66424C9.96058 7.84025 9.11907 8.72321 9.11907 9.82728C9.11907 11.2834 10.0049 11.8572 11.8669 12.0783C13.1084 12.2987 13.507 12.5642 13.507 13.2704C13.507 13.9759 12.8866 14.4618 12.0443 14.4618C10.8915 14.4618 10.493 13.9766 10.3599 13.314C10.3162 13.138 10.1824 13.0493 10.0493 13.0493H9.29581C9.25491 13.0483 9.21424 13.0556 9.17625 13.0708C9.13825 13.086 9.10373 13.1087 9.07477 13.1376C9.04581 13.1665 9.02301 13.2009 9.00775 13.2389C8.99248 13.2769 8.98508 13.3175 8.98597 13.3584V13.4021C9.16271 14.5061 9.87258 15.3004 11.3352 15.5215V16.5812C11.3352 16.7572 11.4683 16.8903 11.6894 16.9339H12.3549C12.5317 16.9339 12.6648 16.8015 12.7091 16.5812V15.5207C14.0394 15.3004 14.9253 14.373 14.9253 13.1809V13.1817Z" fill="white"/>
<path d="M9.7395 17.8169C6.28182 16.5804 4.50862 12.7402 5.79452 9.34143C6.45929 7.48676 7.92193 6.07504 9.7395 5.41245C9.91696 5.32445 10.005 5.19207 10.005 4.97097V4.35275C10.005 4.17674 9.91696 4.04437 9.7395 4C9.69513 4 9.6064 4 9.56203 4.04364C8.56446 4.35517 7.63837 4.86095 6.83707 5.53186C6.03578 6.20277 5.37511 7.02556 4.89311 7.95285C4.41111 8.88014 4.1173 9.89362 4.0286 10.9349C3.93989 11.9762 4.05804 13.0248 4.37625 14.0203C5.17339 16.4931 7.07969 18.3914 9.56203 19.1857C9.73949 19.2737 9.91696 19.1857 9.9606 19.0089C10.005 18.9653 10.005 18.9202 10.005 18.8322V18.214C10.005 18.0816 9.87259 17.9056 9.7395 17.8169ZM14.438 4.04437C14.2605 3.95563 14.083 4.04437 14.0394 4.22038C13.995 4.26474 13.995 4.30911 13.995 4.39712V5.01534C13.995 5.19207 14.1274 5.36809 14.2605 5.45682C17.7182 6.69326 19.4914 10.5335 18.2055 13.9323C17.5407 15.7869 16.0781 17.1986 14.2605 17.8612C14.083 17.9492 13.995 18.0816 13.995 18.3027V18.9209C13.995 19.0969 14.083 19.2293 14.2605 19.2737C14.3049 19.2737 14.3936 19.2737 14.438 19.23C15.4355 18.9185 16.3616 18.4127 17.1629 17.7418C17.9642 17.0709 18.6249 16.2481 19.1069 15.3208C19.5889 14.3935 19.8827 13.3801 19.9714 12.3388C20.0601 11.2975 19.942 10.2489 19.6238 9.25342C18.8266 6.7369 16.8759 4.8386 14.438 4.04437Z" fill="white"/>
</g>
<defs>
<clipPath id="clip0_110_1386">
<rect width="24" height="24" rx="12" fill="white"/>
</clipPath>
</defs>
</svg>
